<svg width="546" height="127" viewBox="0 0 546 127" fill="none" xmlns="http://www.w3.org/2000/svg">
<path d="M35.035 48.664C33.4563 48.664 31.899 49.5387 30.363 51.288C28.8697 52.9947 27.6323 55.4053 26.651 58.52C25.6697 61.592 25.179 65.1973 25.179 69.336C25.179 73.176 25.9043 75.9707 27.355 77.72C28.8483 79.4693 30.8323 80.344 33.307 80.344C34.587 80.344 35.739 80.1733 36.763 79.832C37.787 79.4907 38.7683 78.9787 39.707 78.296C40.6883 77.5707 41.6697 76.6533 42.651 75.544C44.0163 73.9653 45.1897 72.792 46.171 72.024C47.195 71.2133 48.3043 70.808 49.499 70.808C50.9923 70.808 52.1657 71.64 53.019 73.304C53.8723 74.9253 53.5523 77.4 52.059 80.728C51.0777 82.904 49.7763 84.952 48.155 86.872C46.5763 88.7493 44.635 90.392 42.331 91.8C40.027 93.208 37.2963 94.296 34.139 95.064C31.0243 95.8747 27.419 96.28 23.323 96.28C16.0697 96.28 10.4377 94.296 6.427 90.328C2.459 86.36 0.475 80.8347 0.475 73.752C0.475 68.9733 1.26433 64.3653 2.843 59.928C4.46433 55.448 6.83233 51.4373 9.947 47.896C13.1043 44.3547 16.9657 41.56 21.531 39.512C26.0963 37.4213 31.3443 36.376 37.275 36.376C42.267 36.376 46.2777 37.1653 49.307 38.744C52.379 40.28 54.619 42.264 56.027 44.696C57.435 47.128 58.139 49.624 58.139 52.184C58.139 56.5787 56.7523 60.0133 53.979 62.488C51.2483 64.9627 48.1337 66.2 44.635 66.2C42.1177 66.2 40.155 65.6453 38.747 64.536C37.339 63.384 36.635 61.848 36.635 59.928C36.635 58.3493 36.8697 57.0053 37.339 55.896C37.8083 54.7867 38.043 53.528 38.043 52.12C38.043 50.8827 37.787 50.008 37.275 49.496C36.763 48.9413 36.0163 48.664 35.035 48.664ZM96.683 35.864C102.358 35.864 107.094 36.8453 110.891 38.808C114.731 40.728 117.611 43.3733 119.531 46.744C121.494 50.072 122.475 53.848 122.475 58.072C122.475 62.9787 121.75 67.7147 120.299 72.28C118.848 76.8453 116.587 80.9413 113.515 84.568C110.486 88.152 106.56 91.0107 101.739 93.144C96.9603 95.2347 91.2217 96.28 84.523 96.28C78.8057 96.28 74.0057 95.32 70.123 93.4C66.283 91.48 63.3817 88.8347 61.419 85.464C59.499 82.0933 58.539 78.2747 58.539 74.008C58.539 69.144 59.2643 64.4293 60.715 59.864C62.1657 55.2987 64.427 51.224 67.499 47.64C70.571 44.0133 74.5177 41.1547 79.339 39.064C84.1603 36.9307 89.9417 35.864 96.683 35.864ZM86.571 83.864C87.8083 83.864 89.003 83.1813 90.155 81.816C91.307 80.4507 92.3523 78.6587 93.291 76.44C94.2297 74.2213 95.0403 71.8107 95.723 69.208C96.4057 66.6053 96.939 64.0667 97.323 61.592C97.707 59.0747 97.899 56.8773 97.899 55C97.899 53.2933 97.7497 51.9493 97.451 50.968C97.1523 49.9867 96.7257 49.304 96.171 48.92C95.659 48.4933 95.083 48.28 94.443 48.28C93.2057 48.28 92.011 48.9627 90.859 50.328C89.7497 51.6933 88.7043 53.4853 87.723 55.704C86.7843 57.9227 85.9737 60.3333 85.291 62.936C84.6083 65.5387 84.075 68.0987 83.691 70.616C83.307 73.0907 83.115 75.2667 83.115 77.144C83.115 78.8507 83.2643 80.1947 83.563 81.176C83.9043 82.1573 84.331 82.8613 84.843 83.288C85.355 83.672 85.931 83.864 86.571 83.864ZM162.397 77.528L167.133 63.256C167.816 61.2507 168.072 59.5653 167.901 58.2C167.73 56.8347 166.834 56.152 165.213 56.152C163.976 56.152 162.845 56.5147 161.821 57.24C160.84 57.9653 159.901 59.032 159.005 60.44C158.152 61.8053 157.32 63.4907 156.509 65.496C155.698 67.544 155.058 69.2507 154.589 70.616C154.12 71.9813 153.778 73.1547 153.565 74.136C153.394 75.1173 153.309 76.0773 153.309 77.016C153.309 78.4667 153.522 79.8747 153.949 81.24C154.376 82.5627 154.589 84.0987 154.589 85.848C154.589 89.1333 153.224 91.6933 150.493 93.528C147.805 95.3627 143.709 96.28 138.205 96.28C132.402 96.28 128.84 94.6373 127.517 91.352C126.194 88.0667 126.813 83.4587 129.373 77.528L135.581 63.128C136.818 60.2693 137.394 58.328 137.309 57.304C137.224 56.2373 136.648 55.704 135.581 55.704C135.154 55.704 134.706 55.7893 134.237 55.96C133.768 56.088 133.106 56.3867 132.253 56.856C131.826 57.0693 131.4 57.24 130.973 57.368C130.546 57.4533 130.141 57.496 129.757 57.496C128.008 57.496 126.941 56.5787 126.557 54.744C126.173 52.9093 126.706 50.8613 128.157 48.6C130.461 44.9307 133.64 41.9867 137.693 39.768C141.789 37.5067 145.97 36.376 150.237 36.376C153.565 36.376 156.104 37.0587 157.853 38.424C159.645 39.7467 160.541 41.688 160.541 44.248C160.541 45.784 160.157 47.4693 159.389 49.304C158.664 51.096 157.81 52.9733 156.829 54.936C155.848 56.8987 154.994 58.8827 154.269 60.888C153.544 62.8933 153.202 64.8347 153.245 66.712L150.173 66.008C153.16 58.3707 156.509 52.4187 160.221 48.152C163.933 43.8427 167.794 40.8133 171.805 39.064C175.858 37.272 179.848 36.376 183.773 36.376C186.93 36.376 189.341 37.0587 191.005 38.424C192.712 39.7467 193.565 41.688 193.565 44.248C193.565 45.784 193.181 47.4693 192.413 49.304C191.688 51.096 190.834 52.9733 189.853 54.936C188.872 56.8987 188.018 58.8827 187.293 60.888C186.568 62.8933 186.226 64.8347 186.269 66.712L183.197 66.008C185.458 60.2907 187.912 55.5333 190.557 51.736C193.245 47.896 196.04 44.8667 198.941 42.648C201.842 40.3867 204.808 38.7867 207.837 37.848C210.866 36.8667 213.853 36.376 216.797 36.376C220.466 36.376 223.069 37.3787 224.605 39.384C226.184 41.3893 226.888 44.056 226.717 47.384C226.589 50.6693 225.778 54.2747 224.285 58.2L220.061 69.464C219.293 71.512 218.93 73.0693 218.973 74.136C219.016 75.2027 219.549 75.736 220.573 75.736C221 75.736 221.405 75.672 221.789 75.544C222.173 75.416 222.642 75.2027 223.197 74.904C223.538 74.6907 223.858 74.5413 224.157 74.456C224.498 74.328 224.84 74.264 225.181 74.264C226.461 74.264 227.378 75.0747 227.933 76.696C228.53 78.3173 228.082 80.6213 226.589 83.608C224.626 87.3627 221.853 90.4133 218.269 92.76C214.728 95.1067 210.674 96.28 206.109 96.28C202.098 96.28 199.154 95.3627 197.277 93.528C195.4 91.6933 194.397 89.24 194.269 86.168C194.184 83.0533 194.738 79.6613 195.933 75.992L200.157 63.256C200.84 61.2507 201.096 59.5653 200.925 58.2C200.754 56.8347 199.858 56.152 198.237 56.152C197 56.152 195.869 56.5147 194.845 57.24C193.864 57.9653 192.925 59.032 192.029 60.44C191.176 61.8053 190.344 63.4907 189.533 65.496C188.722 67.544 188.082 69.2507 187.613 70.616C187.144 71.9813 186.802 73.1547 186.589 74.136C186.418 75.1173 186.333 76.0773 186.333 77.016C186.333 78.4667 186.546 79.8747 186.973 81.24C187.4 82.5627 187.613 84.0987 187.613 85.848C187.613 89.1333 186.248 91.6933 183.517 93.528C180.829 95.3627 176.733 96.28 171.229 96.28C167.389 96.28 164.594 95.576 162.845 94.168C161.138 92.7173 160.306 90.6053 160.349 87.832C160.392 85.016 161.074 81.5813 162.397 77.528ZM255.338 55.704L260.01 40.472H269.802C272.405 40.472 274.431 40.8773 275.882 41.688C277.333 42.4987 278.058 44.056 278.058 46.36C278.058 48.024 277.525 49.5813 276.458 51.032C275.391 52.44 273.962 53.5707 272.17 54.424C270.421 55.2773 268.522 55.704 266.474 55.704H255.338ZM233.194 46.552C233.194 44.7173 233.855 43.224 235.178 42.072C236.501 40.92 238.25 40.344 240.426 40.344H244.522L248.362 26.264C250.751 17.432 253.994 11.0107 258.09 6.99999C262.229 2.94666 267.605 0.919998 274.218 0.919998C278.613 0.919998 282.154 2.2 284.842 4.75999C287.573 7.27733 288.938 10.4133 288.938 14.168C288.938 17.4533 287.85 20.056 285.674 21.976C283.498 23.896 280.703 24.856 277.29 24.856C275.626 24.856 274.218 24.5573 273.066 23.96C271.914 23.3627 270.911 22.68 270.058 21.912C269.205 21.144 268.373 20.4613 267.562 19.864C266.751 19.2667 265.855 18.968 264.874 18.968C264.149 18.968 263.53 19.1813 263.018 19.608C262.549 20.0347 262.229 20.6533 262.058 21.464C261.845 22.4027 262.165 23.3413 263.018 24.28C263.871 25.2187 264.831 26.3493 265.898 27.672C266.965 28.952 267.754 30.616 268.266 32.664C268.821 34.6693 268.714 37.2507 267.946 40.408L256.234 87C255.935 88.1947 255.701 89.2613 255.53 90.2C255.402 91.1387 255.338 91.9493 255.338 92.632C255.338 94.168 255.829 95.4267 256.81 96.408C257.791 97.3893 258.751 98.392 259.69 99.416C260.671 100.44 261.162 101.827 261.162 103.576C261.162 106.221 260.01 108.589 257.706 110.68C255.445 112.813 252.543 114.499 249.002 115.736C245.503 116.973 241.855 117.592 238.058 117.592C233.791 117.592 231.103 115.992 229.994 112.792C228.842 109.592 228.949 105.24 230.314 99.736L239.85 61.848C240.319 59.928 240.383 58.3493 240.042 57.112C239.701 55.832 238.762 54.616 237.226 53.464C235.818 52.3547 234.794 51.288 234.154 50.264C233.514 49.1973 233.194 47.96 233.194 46.552ZM319.737 54.68C321.06 48.5787 322.98 44.0133 325.497 40.984C328.014 37.912 331.236 36.376 335.161 36.376C338.361 36.376 340.75 37.4853 342.329 39.704C343.908 41.9227 344.697 44.76 344.697 48.216C344.697 51.9707 343.886 55.1707 342.265 57.816C340.686 60.4613 337.721 63.1707 333.369 65.944C331.918 66.8827 330.638 67.9067 329.529 69.016C328.462 70.1253 327.524 71.3627 326.713 72.728C325.902 74.0507 325.198 75.5227 324.601 77.144C324.046 78.7653 323.534 80.5573 323.065 82.52L318.969 99.992C317.689 105.539 315.449 110.275 312.249 114.2C309.049 118.125 305.102 121.133 300.409 123.224C295.716 125.315 290.468 126.36 284.665 126.36C278.222 126.36 273.422 124.909 270.265 122.008C267.108 119.107 265.529 115.395 265.529 110.872C265.529 107.459 266.532 104.643 268.537 102.424C270.542 100.248 273.102 99.16 276.217 99.16C278.052 99.16 279.524 99.608 280.633 100.504C281.785 101.443 282.724 102.573 283.449 103.896C284.217 105.261 284.9 106.605 285.497 107.928C286.137 109.293 286.82 110.424 287.545 111.32C288.27 112.259 289.209 112.728 290.361 112.728C290.958 112.728 291.47 112.579 291.897 112.28C292.324 112.024 292.665 111.555 292.921 110.872C293.22 110.232 293.433 109.315 293.561 108.12C293.689 106.968 293.753 105.496 293.753 103.704C293.753 102.168 293.71 100.333 293.625 98.2C293.54 96.1093 293.433 93.8267 293.305 91.352C293.177 88.8347 293.006 86.2533 292.793 83.608C292.622 80.92 292.409 78.296 292.153 75.736C291.94 73.1333 291.705 70.6587 291.449 68.312C291.193 65.9653 290.937 63.8747 290.681 62.04C290.34 59.5227 289.87 57.816 289.273 56.92C288.718 56.024 288.078 55.576 287.353 55.576C286.926 55.576 286.5 55.6827 286.073 55.896C285.646 56.1093 285.113 56.5787 284.473 57.304C283.918 57.9013 283.257 58.2853 282.489 58.456C281.764 58.584 280.996 58.4347 280.185 58.008C279.161 57.4107 278.585 56.3013 278.457 54.68C278.372 53.0587 278.905 50.9467 280.057 48.344C281.038 46.1253 282.446 44.12 284.281 42.328C286.158 40.536 288.334 39.1067 290.809 38.04C293.284 36.9307 295.908 36.376 298.681 36.376C302.734 36.376 305.87 37.6987 308.089 40.344C310.35 42.9893 311.822 47.32 312.505 53.336C312.761 55.5547 312.996 57.9653 313.209 60.568C313.465 63.128 313.678 65.88 313.849 68.824C314.062 71.7253 314.233 74.8187 314.361 78.104C314.489 81.3467 314.574 84.76 314.617 88.344C314.702 91.8853 314.745 95.5973 314.745 99.48L310.265 98.648L319.737 54.68ZM379.436 23.32L369.324 56.92L367.084 56.664C369.004 52.056 371.201 48.2587 373.676 45.272C376.193 42.2427 378.924 40.0027 381.868 38.552C384.855 37.0587 388.033 36.312 391.404 36.312C396.481 36.312 400.428 37.9333 403.244 41.176C406.103 44.4187 407.532 48.9627 407.532 54.808C407.532 60.6107 406.615 66.0293 404.78 71.064C402.988 76.0987 400.471 80.5147 397.228 84.312C394.028 88.0667 390.337 91.0107 386.156 93.144C381.975 95.2773 377.537 96.344 372.844 96.344C367.553 96.344 363.095 95.0213 359.468 92.376C355.884 89.688 354.092 85.2293 354.092 79L363.18 84.248L353.772 92.632C352.663 93.6133 351.532 94.36 350.38 94.872C349.228 95.384 348.012 95.64 346.732 95.64C343.617 95.64 341.569 94.4453 340.588 92.056C339.649 89.6667 339.841 86.0187 341.164 81.112L355.18 29.464C356.716 23.7893 359.127 18.8187 362.412 14.552C365.74 10.2427 369.964 6.89333 375.084 4.504C380.204 2.11466 386.284 0.919998 393.324 0.919998C399.937 0.919998 405.036 2.2 408.62 4.75999C412.247 7.32 414.06 10.6907 414.06 14.872C414.06 17.8587 413.185 20.4187 411.436 22.552C409.687 24.6853 407.297 25.752 404.268 25.752C402.049 25.752 400.044 25.1973 398.252 24.088C396.503 22.936 394.86 21.6347 393.324 20.184C391.831 18.6907 390.401 17.3893 389.036 16.28C387.671 15.128 386.284 14.552 384.876 14.552C383.809 14.552 382.892 15.128 382.124 16.28C381.399 17.3893 380.503 19.736 379.436 23.32ZM380.588 52.568C379.351 52.568 378.092 53.2293 376.812 54.552C375.532 55.832 374.295 57.5173 373.1 59.608C371.948 61.6987 370.924 63.9387 370.028 66.328C369.132 68.7173 368.407 71.0427 367.852 73.304C367.34 75.5227 367.084 77.4213 367.084 79C367.084 80.5787 367.404 81.7093 368.044 82.392C368.684 83.032 369.495 83.352 370.476 83.352C371.841 83.352 373.164 82.7547 374.444 81.56C375.724 80.3227 376.919 78.7013 378.028 76.696C379.137 74.6907 380.097 72.5147 380.908 70.168C381.761 67.8213 382.423 65.5173 382.892 63.256C383.361 60.952 383.596 58.904 383.596 57.112C383.596 55.96 383.468 55.064 383.212 54.424C382.999 53.7413 382.657 53.272 382.188 53.016C381.761 52.7173 381.228 52.568 380.588 52.568ZM447.433 35.864C453.108 35.864 457.844 36.8453 461.641 38.808C465.481 40.728 468.361 43.3733 470.281 46.744C472.244 50.072 473.225 53.848 473.225 58.072C473.225 62.9787 472.5 67.7147 471.049 72.28C469.598 76.8453 467.337 80.9413 464.265 84.568C461.236 88.152 457.31 91.0107 452.489 93.144C447.71 95.2347 441.972 96.28 435.273 96.28C429.556 96.28 424.756 95.32 420.873 93.4C417.033 91.48 414.132 88.8347 412.169 85.464C410.249 82.0933 409.289 78.2747 409.289 74.008C409.289 69.144 410.014 64.4293 411.465 59.864C412.916 55.2987 415.177 51.224 418.249 47.64C421.321 44.0133 425.268 41.1547 430.089 39.064C434.91 36.9307 440.692 35.864 447.433 35.864ZM437.321 83.864C438.558 83.864 439.753 83.1813 440.905 81.816C442.057 80.4507 443.102 78.6587 444.041 76.44C444.98 74.2213 445.79 71.8107 446.473 69.208C447.156 66.6053 447.689 64.0667 448.073 61.592C448.457 59.0747 448.649 56.8773 448.649 55C448.649 53.2933 448.5 51.9493 448.201 50.968C447.902 49.9867 447.476 49.304 446.921 48.92C446.409 48.4933 445.833 48.28 445.193 48.28C443.956 48.28 442.761 48.9627 441.609 50.328C440.5 51.6933 439.454 53.4853 438.473 55.704C437.534 57.9227 436.724 60.3333 436.041 62.936C435.358 65.5387 434.825 68.0987 434.441 70.616C434.057 73.0907 433.865 75.2667 433.865 77.144C433.865 78.8507 434.014 80.1947 434.313 81.176C434.654 82.1573 435.081 82.8613 435.593 83.288C436.105 83.672 436.681 83.864 437.321 83.864ZM498.811 64.792L504.251 70.424C504.379 74.776 503.974 78.5733 503.035 81.816C502.139 85.0587 500.838 87.7467 499.131 89.88C497.467 92.0133 495.483 93.6133 493.179 94.68C490.918 95.7467 488.464 96.28 485.819 96.28C481.979 96.28 479.099 95.0427 477.179 92.568C475.302 90.0507 474.384 86.872 474.427 83.032C474.47 77.8267 475.664 73.7093 478.011 70.68C480.358 67.6507 483.28 66.136 486.779 66.136C489.51 66.136 491.536 66.904 492.859 68.44C494.224 69.976 494.907 71.7467 494.907 73.752C494.907 74.6907 494.822 75.5013 494.651 76.184C494.48 76.824 494.395 77.5067 494.395 78.232C494.395 78.872 494.48 79.384 494.651 79.768C494.864 80.1093 495.227 80.28 495.739 80.28C496.294 80.28 496.848 79.8107 497.403 78.872C497.958 77.8907 498.384 76.2693 498.683 74.008C498.982 71.7467 499.024 68.6747 498.811 64.792ZM519.291 53.08L521.915 75.416C522.128 77.1653 522.491 78.424 523.003 79.192C523.515 79.9173 524.198 80.28 525.051 80.28C525.648 80.28 526.331 80.1093 527.099 79.768C527.91 79.384 528.976 78.6587 530.299 77.592C532.134 76.0987 533.691 75.2667 534.971 75.096C536.294 74.8827 537.36 75.0747 538.171 75.672C539.238 76.3973 539.75 77.5067 539.707 79C539.664 80.4507 539.238 82.0507 538.427 83.8C537.488 85.8907 535.974 87.896 533.883 89.816C531.835 91.6933 529.339 93.2507 526.395 94.488C523.494 95.6827 520.272 96.28 516.731 96.28C512.976 96.28 509.968 95.5333 507.707 94.04C505.488 92.5467 503.824 90.5413 502.715 88.024C501.648 85.5067 500.923 82.6907 500.539 79.576L497.915 57.24C497.702 55.4907 497.339 54.2533 496.827 53.528C496.315 52.76 495.632 52.376 494.779 52.376C494.224 52.376 493.542 52.5467 492.731 52.888C491.92 53.2293 490.854 53.9547 489.531 55.064C487.696 56.5573 486.139 57.3893 484.859 57.56C483.579 57.7307 482.512 57.5387 481.659 56.984C480.592 56.2587 480.08 55.1493 480.123 53.656C480.166 52.1627 480.592 50.5627 481.403 48.856C482.342 46.7653 483.835 44.7813 485.883 42.904C487.974 40.984 490.47 39.4267 493.371 38.232C496.315 36.9947 499.558 36.376 503.099 36.376C506.854 36.376 509.84 37.1227 512.059 38.616C514.32 40.1093 516.006 42.1147 517.115 44.632C518.224 47.1493 518.95 49.9653 519.291 53.08ZM521.019 67.864L515.579 62.232C515.451 57.88 515.835 54.0827 516.731 50.84C517.627 47.5973 518.928 44.9093 520.635 42.776C522.342 40.6427 524.326 39.0427 526.587 37.976C528.891 36.9093 531.366 36.376 534.011 36.376C537.851 36.376 540.731 37.6347 542.651 40.152C544.571 42.6267 545.488 45.784 545.403 49.624C545.36 54.7867 544.166 58.904 541.819 61.976C539.472 65.0053 536.55 66.52 533.051 66.52C530.32 66.52 528.272 65.752 526.907 64.216C525.584 62.68 524.923 60.9093 524.923 58.904C524.923 57.9653 525.008 57.176 525.179 56.536C525.35 55.8533 525.435 55.1493 525.435 54.424C525.435 53.784 525.328 53.2933 525.115 52.952C524.944 52.568 524.603 52.376 524.091 52.376C523.707 52.376 523.302 52.6533 522.875 53.208C522.448 53.72 522.064 54.5733 521.723 55.768C521.382 56.9627 521.126 58.5627 520.955 60.568C520.827 62.5307 520.848 64.9627 521.019 67.864Z" fill="black"/>
</svg>
